# xmcd
#
# Track frame offsets:
# 150
# 14525
# 29318
# 42215
# 55100
# 70787
# 84595
# 98218
# 111109
# 123726
# 137967
# 150808
# 164281
# 179019
# 192284
# 204730
# 216846
# 229897
# 242272
# 254843
# 267303
# 278975
# 291267
# 304089
# 316880
#
# Disc length: 4385 seconds
#
# Revision: 0
# Processed by: cddbd v1.4PL0 Copyright (c) Steve Scherf et al.
# Submitted via: Audion 3.0.2 (http://www.panic.com/audion/)
#
DISCID=72111f19
DTITLE=Memphis Minnie - Pickin' The Blues
DYEAR=1900
DGENRE=
TTITLE0=When The Levee Breaks
TTITLE1=Bumble Bee
TTITLE2=Plymouth Rock Blues
TTITLE3=Frankie Jean (That Trottin' Fool)
TTITLE4=Crazy Cryin' Blues
TTITLE5=Pickin' The Blues
TTITLE6=Where Is My Good Man At?
TTITLE7=Drunken Barrel House Blues
TTITLE8=Dirty Mother For You
TTITLE9=He's In The Ring
TTITLE10=Joe Louis Strut
TTITLE11=Ice Man (Come On Up)
TTITLE12=If You See My Rooster
TTITLE13=Caught Me Wrong Again
TTITLE14=Has Anyone Seen My Man?
TTITLE15=Poor And Wondering Woman Blues
TTITLE16=Lonesome Shack Blues
TTITLE17=Nothing In Rambling
TTITLE18=It's Hard To Please My Man
TTITLE19=Ma Rainey
TTITLE20=In My Girlish Days
TTITLE21=Me And My Chauffeur Blues
TTITLE22=Don't Turn The Card
TTITLE23=I Am Sailin'
TTITLE24=Love Come And Go
EXTD=
EXTT0=
EXTT1=
EXTT2=
EXTT3=
EXTT4=
EXTT5=
EXTT6=
EXTT7=
EXTT8=
EXTT9=
EXTT10=
EXTT11=
EXTT12=
EXTT13=
EXTT14=
EXTT15=
EXTT16=
EXTT17=
EXTT18=
EXTT19=
EXTT20=
EXTT21=
EXTT22=
EXTT23=
EXTT24=
PLAYORDER=
